{
  "accessors": [
    {
      "bufferView": 2,
      "componentType": 5126,
      "count": 65532,
      "max": [
        8.2865066528320312,
        -1.053367018699646,
        7.5746030807495117
      ],
      "min": [
        -8.7481441497802734,
        -7.5909948348999023,
        -7.531343936920166
      ],
      "type": "VEC3"
    },
    {
      "bufferView": 2,
      "byteOffset": 786384,
      "componentType": 5126,
      "count": 65532,
      "max": [
        0.99997323751449585,
        0.99992829561233521,
        0.99998867511749268
      ],
      "min": [
        -0.99996471405029297,
        -0.9999966025352478,
        -0.99989581108093262
      ],
      "type": "VEC3"
    },
    {
      "bufferView": 3,
      "componentType": 5126,
      "count": 65532,
      "max": [
        0.99992406368255615,
        0.96794348955154419,
        0.99997186660766602,
        1
      ],
      "min": [
        -0.99999624490737915,
        -0.95704913139343262,
        -0.99938005208969116,
        -1
      ],
      "type": "VEC4"
    },
    {
      "bufferView": 3,
      "byteOffset": 1048512,
      "componentType": 5126,
      "count": 65532,
      "max": [
        0.75294101238250732,
        0.75294101238250732,
        0.75294101238250732,
        1
      ],
      "min": [
        0.75294101238250732,
        0.75294101238250732,
        0.75294101238250732,
        1
      ],
      "type": "VEC4"
    },
    {
      "bufferView": 1,
      "componentType": 5126,
      "count": 65532,
      "max": [
        0.9963110089302063,
        0.99804097414016724
      ],
      "min": [
        0.0021170000545680523,
        0.23346699774265289
      ],
      "type": "VEC2"
    },
    {
      "bufferView": 0,
      "componentType": 5125,
      "count": 359277,
      "max": [
        65531
      ],
      "min": [
        0
      ],
      "type": "SCALAR"
    },
    {
      "bufferView": 2,
      "byteOffset": 1572768,
      "componentType": 5126,
      "count": 12879,
      "max": [
        8.2775707244873047,
        -1.0840840339660645,
        7.5746030807495117
      ],
      "min": [
        -8.744166374206543,
        -7.5735487937927246,
        -7.531343936920166
      ],
      "type": "VEC3"
    },
    {
      "bufferView": 2,
      "byteOffset": 1727316,
      "componentType": 5126,
      "count": 12879,
      "max": [
        0.99978899955749512,
        0.99851500988006592,
        0.99976736307144165
      ],
      "min": [
        -0.99988746643066406,
        -0.99992978572845459,
        -0.99978166818618774
      ],
      "type": "VEC3"
    },
    {
      "bufferView": 3,
      "byteOffset": 2097024,
      "componentType": 5126,
      "count": 12879,
      "max": [
        0.99992406368255615,
        0.95319342613220215,
        0.99927735328674316,
        1
      ],
      "min": [
        -0.99999558925628662,
        -0.93216598033905029,
        -0.99590611457824707,
        -1
      ],
      "type": "VEC4"
    },
    {
      "bufferView": 3,
      "byteOffset": 2303088,
      "componentType": 5126,
      "count": 12879,
      "max": [
        0.75294101238250732,
        0.75294101238250732,
        0.75294101238250732,
        1
      ],
      "min": [
        0.75294101238250732,
        0.75294101238250732,
        0.75294101238250732,
        1
      ],
      "type": "VEC4"
    },
    {
      "bufferView": 1,
      "byteOffset": 524256,
      "componentType": 5126,
      "count": 12879,
      "max": [
        0.99513500928878784,
        0.99803698062896729
      ],
      "min": [
        0.0057109999470412731,
        0.2353380024433136
      ],
      "type": "VEC2"
    },
    {
      "bufferView": 0,
      "byteOffset": 1437108,
      "componentType": 5125,
      "count": 28263,
      "max": [
        12878
      ],
      "min": [
        0
      ],
      "type": "SCALAR"
    },
    {
      "bufferView": 2,
      "byteOffset": 1881864,
      "componentType": 5126,
      "count": 6221,
      "max": [
        2.8752360343933105,
        -1.5206869840621948,
        4.5759258270263672
      ],
      "min": [
        -8.1217155456542969,
        -7.5125041007995605,
        -5.9943661689758301
      ],
      "type": "VEC3"
    },
    {
      "bufferView": 2,
      "byteOffset": 1956516,
      "componentType": 5126,
      "count": 6221,
      "max": [
        0.99994170665740967,
        0.99881988763809204,
        0.99997192621231079
      ],
      "min": [
        -0.99965262413024902,
        -0.99995005130767822,
        -0.99980336427688599
      ],
      "type": "VEC3"
    },
    {
      "bufferView": 3,
      "byteOffset": 2509152,
      "componentType": 5126,
      "count": 6221,
      "max": [
        0.99230903387069702,
        0.9027971625328064,
        0.99944895505905151,
        1
      ],
      "min": [
        -0.99930846691131592,
        -0.99852627515792847,
        -0.99947625398635864,
        -1
      ],
      "type": "VEC4"
    },
    {
      "bufferView": 3,
      "byteOffset": 2608688,
      "componentType": 5126,
      "count": 6221,
      "max": [
        0.75294101238250732,
        0.75294101238250732,
        0.75294101238250732,
        1
      ],
      "min": [
        0.75294101238250732,
        0.75294101238250732,
        0.75294101238250732,
        1
      ],
      "type": "VEC4"
    },
    {
      "bufferView": 1,
      "byteOffset": 627288,
      "componentType": 5126,
      "count": 6221,
      "max": [
        0.99036997556686401,
        0.99194502830505371
      ],
      "min": [
        0.0084619997069239616,
        0.015463000163435936
      ],
      "type": "VEC2"
    },
    {
      "bufferView": 0,
      "byteOffset": 1550160,
      "componentType": 5125,
      "count": 34146,
      "max": [
        6220
      ],
      "min": [
        0
      ],
      "type": "SCALAR"
    },
    {
      "bufferView": 2,
      "byteOffset": 2031168,
      "componentType": 5126,
      "count": 60,
      "max": [
        1.2652649879455566,
        -2.7500929832458496,
        4.484501838684082
      ],
      "min": [
        -2.2467629909515381,
        -6.6062917709350586,
        -4.5056967735290527
      ],
      "type": "VEC3"
    },
    {
      "bufferView": 2,
      "byteOffset": 2031888,
      "componentType": 5126,
      "count": 60,
      "max": [
        0.72435551881790161,
        0.99725455045700073,
        0.68440794944763184
      ],
      "min": [
        -0.97140908241271973,
        -0.97359472513198853,
        -0.54984593391418457
      ],
      "type": "VEC3"
    },
    {
      "bufferView": 3,
      "byteOffset": 2708224,
      "componentType": 5126,
      "count": 60,
      "max": [
        0,
        0,
        0,
        1
      ],
      "min": [
        0,
        0,
        0,
        1
      ],
      "type": "VEC4"
    },
    {
      "bufferView": 3,
      "byteOffset": 2709184,
      "componentType": 5126,
      "count": 60,
      "max": [
        0.75294101238250732,
        0.75294101238250732,
        0.75294101238250732,
        1
      ],
      "min": [
        0.75294101238250732,
        0.75294101238250732,
        0.75294101238250732,
        1
      ],
      "type": "VEC4"
    },
    {
      "bufferView": 0,
      "byteOffset": 1686744,
      "componentType": 5125,
      "count": 150,
      "max": [
        59
      ],
      "min": [
        0
      ],
      "type": "SCALAR"
    }
  ],
  "asset": {
    "generator": "Sketchfab (OSG glTF plugin)",
    "version": "2.0"
  },
  "bufferViews": [
    {
      "buffer": 0,
      "byteLength": 1687344,
      "byteOffset": 0,
      "name": "floatBufferViews",
      "target": 34963
    },
    {
      "buffer": 0,
      "byteLength": 677056,
      "byteOffset": 1687344,
      "byteStride": 8,
      "name": "floatBufferViews",
      "target": 34962
    },
    {
      "buffer": 0,
      "byteLength": 2032608,
      "byteOffset": 2364400,
      "byteStride": 12,
      "name": "floatBufferViews",
      "target": 34962
    },
    {
      "buffer": 0,
      "byteLength": 2710144,
      "byteOffset": 4397008,
      "byteStride": 16,
      "name": "floatBufferViews",
      "target": 34962
    }
  ],
  "buffers": [
    {
      "byteLength": 7107152,
      "uri": "scene.bin"
    }
  ],
  "extensionsRequired": [
    "KHR_materials_pbrSpecularGlossiness"
  ],
  "extensionsUsed": [
    "KHR_materials_pbrSpecularGlossiness"
  ],
  "images": [
    {
      "uri": "textures/material_1_diffuse.jpeg"
    },
    {
      "uri": "textures/material_1_normal.jpeg"
    },
    {
      "uri": "textures/material_1_occlusion.jpeg"
    },
    {
      "uri": "textures/material_1_specularGlossiness.jpeg"
    },
    {
      "uri": "textures/material_0_diffuse.jpeg"
    },
    {
      "uri": "textures/material_0_normal.jpeg"
    },
    {
      "uri": "textures/material_0_specularGlossiness.jpeg"
    },
    {
      "uri": "textures/material_0_occlusion.jpeg"
    }
  ],
  "materials": [
    {
      "doubleSided": true,
      "extensions": {
        "KHR_materials_pbrSpecularGlossiness": {
          "diffuseFactor": [
            1,
            1,
            1,
            1
          ],
          "diffuseTexture": {
            "index": 4,
            "texCoord": 0
          },
          "glossinessFactor": 0.47999999999999998,
          "specularFactor": [
            0.050000000000000003,
            0.050000000000000003,
            0.050000000000000003
          ],
          "specularGlossinessTexture": {
            "index": 6,
            "texCoord": 0
          }
        }
      },
      "name": "material_0",
      "normalTexture": {
        "index": 5,
        "scale": 1,
        "texCoord": 0
      },
      "occlusionTexture": {
        "index": 7,
        "strength": 1,
        "texCoord": 0
      }
    },
    {
      "doubleSided": true,
      "extensions": {
        "KHR_materials_pbrSpecularGlossiness": {
          "diffuseFactor": [
            1,
            1,
            1,
            1
          ],
          "diffuseTexture": {
            "index": 0,
            "texCoord": 0
          },
          "glossinessFactor": 0.43999999999999995,
          "specularFactor": [
            0.070000000000000007,
            0.070000000000000007,
            0.070000000000000007
          ],
          "specularGlossinessTexture": {
            "index": 3,
            "texCoord": 0
          }
        }
      },
      "name": "material_1",
      "normalTexture": {
        "index": 1,
        "scale": 1,
        "texCoord": 0
      },
      "occlusionTexture": {
        "index": 2,
        "strength": 1,
        "texCoord": 0
      }
    },
    {
      "doubleSided": true,
      "extensions": {
        "KHR_materials_pbrSpecularGlossiness": {
          "diffuseFactor": [
            1,
            1,
            1,
            1
          ],
          "glossinessFactor": 0.80000000000000004,
          "specularFactor": [
            0,
            0,
            0
          ]
        }
      },
      "name": "material_2"
    }
  ],
  "meshes": [
    {
      "primitives": [
        {
          "attributes": {
            "COLOR_0": 3,
            "NORMAL": 1,
            "POSITION": 0,
            "TANGENT": 2,
            "TEXCOORD_0": 4
          },
          "indices": 5,
          "material": 0,
          "mode": 4
        }
      ]
    },
    {
      "primitives": [
        {
          "attributes": {
            "COLOR_0": 9,
            "NORMAL": 7,
            "POSITION": 6,
            "TANGENT": 8,
            "TEXCOORD_0": 10
          },
          "indices": 11,
          "material": 0,
          "mode": 4
        }
      ]
    },
    {
      "primitives": [
        {
          "attributes": {
            "COLOR_0": 15,
            "NORMAL": 13,
            "POSITION": 12,
            "TANGENT": 14,
            "TEXCOORD_0": 16
          },
          "indices": 17,
          "material": 1,
          "mode": 4
        }
      ]
    },
    {
      "primitives": [
        {
          "attributes": {
            "COLOR_0": 21,
            "NORMAL": 19,
            "POSITION": 18,
            "TANGENT": 20
          },
          "indices": 22,
          "material": 2,
          "mode": 4
        }
      ]
    }
  ],
  "nodes": [
    {
      "children": [
        1
      ],
      "name": "RootNode (gltf orientation matrix)",
      "rotation": [
        -0.70710678118654746,
        -0,
        -0,
        0.70710678118654757
      ]
    },
    {
      "children": [
        2
      ],
      "matrix": [
        1,
        0,
        0,
        0,
        0,
        0,
        -1,
        0,
        0,
        1,
        0,
        0,
        0,
        -4.3438105583190918,
        -4.3005514144897461,
        1
      ],
      "name": "RootNode (model correction matrix)"
    },
    {
      "children": [
        3
      ],
      "name": "mesh1.obj.cleaner"
    },
    {
      "children": [
        4,
        5,
        6,
        7
      ],
      "name": "Geode"
    },
    {
      "mesh": 0,
      "name": ""
    },
    {
      "mesh": 1,
      "name": ""
    },
    {
      "mesh": 2,
      "name": ""
    },
    {
      "mesh": 3,
      "name": ""
    }
  ],
  "samplers": [
    {
      "magFilter": 9729,
      "minFilter": 9987,
      "wrapS": 10497,
      "wrapT": 10497
    }
  ],
  "scene": 0,
  "scenes": [
    {
      "name": "OSG_Scene",
      "nodes": [
        0
      ]
    }
  ],
  "textures": [
    {
      "sampler": 0,
      "source": 0
    },
    {
      "sampler": 0,
      "source": 1
    },
    {
      "sampler": 0,
      "source": 2
    },
    {
      "sampler": 0,
      "source": 3
    },
    {
      "sampler": 0,
      "source": 4
    },
    {
      "sampler": 0,
      "source": 5
    },
    {
      "sampler": 0,
      "source": 6
    },
    {
      "sampler": 0,
      "source": 7
    }
  ]
}

